// MUSIC_NAME: Billie-Jean.mid
/*************************************************
 * GENERATED FROM: musiques/Billie-Jean.mid
 * DO NOT EDIT THIS FILE MANUALLY
 *
 * This file contains the C-arrays for the melody pitch and duration.
 * It is designed for use with the Arduino tone() function or ESP32 LEDC.
 * The pitches (e.g., NOTE_C4) are defined in 'pitches.h'.
 *************************************************/
#pragma once
#include "pitches.h"

// The notes array (pitch macro names from pitches.h)
// PROGMEM is used to store the data in Flash memory on Uno/Nano.
const int melody[] PROGMEM = {
    NOTE_CS4,
    NOTE_CS4,
    NOTE_CS4,
    NOTE_B3,
    NOTE_A3,
    NOTE_B3,
    NOTE_A3,
    NOTE_CS4,
    NOTE_B3,
    NOTE_A3,
    NOTE_B3,
    NOTE_A3,
    NOTE_CS4,
    NOTE_CS4,
    NOTE_CS4,
    NOTE_CS4,
    NOTE_CS4,
    NOTE_B3,
    NOTE_A3,
    NOTE_B3,
    NOTE_A3,
    NOTE_CS4,
    NOTE_B3,
    NOTE_A3,
    NOTE_GS3,
    NOTE_FS3,
    NOTE_FS3,
    NOTE_GS3,
    NOTE_FS3,
    NOTE_FS3,
    NOTE_GS3,
    NOTE_FS3,
    NOTE_FS3,
    NOTE_GS3,
    NOTE_FS3,
    NOTE_FS3,
    NOTE_A3,
    NOTE_B3,
    NOTE_A3,
    NOTE_GS3,
    NOTE_FS3,
    NOTE_FS3,
    NOTE_GS3,
    NOTE_FS3,
    NOTE_FS3,
    NOTE_GS3,
    NOTE_FS3,
    NOTE_FS3,
    NOTE_GS3,
    NOTE_FS3,
    NOTE_CS4,
    NOTE_CS4,
    NOTE_CS4,
    NOTE_CS4,
    NOTE_B3,
    NOTE_A3,
    NOTE_B3,
    NOTE_A3,
    NOTE_CS4,
    NOTE_B3,
    NOTE_A3,
    NOTE_B3,
    NOTE_A3,
    NOTE_CS4,
    NOTE_CS4,
    NOTE_CS4,
    NOTE_CS4,
    NOTE_CS4,
    NOTE_B3,
    NOTE_A3,
    NOTE_B3,
    NOTE_A3,
    NOTE_CS4,
    NOTE_B3,
    NOTE_B3,
    NOTE_A3,
    NOTE_GS3,
    NOTE_FS3,
    NOTE_FS3,
    NOTE_GS3,
    NOTE_FS3,
    NOTE_FS3,
    NOTE_GS3,
    NOTE_FS3,
    NOTE_FS3,
    NOTE_GS3,
    NOTE_FS3,
    NOTE_FS4,
    NOTE_E4,
    NOTE_FS4,
    NOTE_E4,
    NOTE_FS4,
    NOTE_A4,
    NOTE_FS4,
    NOTE_A4,
    NOTE_FS4,
    NOTE_FS4,
    NOTE_FS4,
    NOTE_E4,
    NOTE_FS4,
    NOTE_CS4,
    NOTE_FS4,
    NOTE_E4,
    NOTE_FS4,
    NOTE_FS4,
    NOTE_FS4,
    NOTE_E4,
    NOTE_FS4,
    NOTE_GS4,
    NOTE_FS4,
    NOTE_E4,
    NOTE_FS4,
    NOTE_E4,
    NOTE_FS4,
    NOTE_E4,
    NOTE_FS4,
    NOTE_FS4,
    NOTE_FS4,
    NOTE_A4,
    NOTE_FS4,
    NOTE_FS4,
    NOTE_FS4,
    NOTE_E4,
    NOTE_FS4,
    NOTE_CS4,
    NOTE_FS4,
    NOTE_D4,
    NOTE_D4,
    NOTE_D4,
    NOTE_D4,
    NOTE_E4,
    NOTE_FS4,
    NOTE_FS4,
    NOTE_FS4,
    NOTE_F4,
    NOTE_F4,
    NOTE_F4,
    NOTE_FS4,
    NOTE_GS4,
    NOTE_FS4,
    NOTE_GS4,
    NOTE_FS4,
    NOTE_FS4,
    NOTE_FS4,
    NOTE_E4,
    NOTE_CS4,
    NOTE_CS4,
    NOTE_FS4,
    NOTE_FS4,
    NOTE_E4,
    NOTE_CS4,
    NOTE_FS4,
    NOTE_FS4,
    NOTE_FS4,
    NOTE_E4,
    NOTE_CS4,
    NOTE_CS4,
    NOTE_FS4,
    NOTE_A4,
    NOTE_B4,
    NOTE_A4,
    NOTE_GS4,
    NOTE_FS4,
    NOTE_FS4,
    NOTE_FS4,
    NOTE_CS5,
    NOTE_B4,
    NOTE_B4,
    NOTE_FS4,
    NOTE_D4,
    NOTE_CS4,
    NOTE_FS4,
    NOTE_A4,
    NOTE_B4,
    NOTE_A4,
    NOTE_GS4,
    NOTE_FS4,
    NOTE_FS4,
    NOTE_FS4,
    NOTE_CS5,
    NOTE_B4,
    NOTE_B4,
    NOTE_FS4,
    NOTE_D4,
    NOTE_CS4,
    NOTE_CS4,
    NOTE_CS4,
    NOTE_CS4,
    NOTE_CS4,
    NOTE_B3,
    NOTE_A3,
    NOTE_B3,
    NOTE_A3,
    NOTE_CS4,
    NOTE_B3,
    NOTE_A3,
    NOTE_B3,
    NOTE_A3,
    NOTE_CS4,
    NOTE_CS4,
    NOTE_CS4,
    NOTE_CS4,
    NOTE_CS4,
    NOTE_B3,
    NOTE_A3,
    NOTE_B3,
    NOTE_A3,
    NOTE_CS4,
    NOTE_B3,
    NOTE_A3,
    NOTE_GS3,
    NOTE_FS3,
    NOTE_FS3,
    NOTE_GS3,
    NOTE_FS3,
    NOTE_FS3,
    NOTE_GS3,
    NOTE_FS3,
    NOTE_FS3,
    NOTE_GS3,
    NOTE_FS3,
    NOTE_FS3,
    NOTE_A3,
    NOTE_B3,
    NOTE_A3,
    NOTE_GS3,
    NOTE_FS3,
    NOTE_FS3,
    NOTE_FS3,
    NOTE_D4,
    NOTE_CS4,
    NOTE_A3,
    NOTE_GS3,
    NOTE_FS3,
    NOTE_D3,
    NOTE_CS3,
    NOTE_CS4,
    NOTE_CS4,
    NOTE_CS4,
    NOTE_CS4,
    NOTE_B3,
    NOTE_A3,
    NOTE_B3,
    NOTE_A3,
    NOTE_CS4,
    NOTE_B3,
    NOTE_A3,
    NOTE_B3,
    NOTE_A3,
    NOTE_CS4,
    NOTE_CS4,
    NOTE_CS4,
    NOTE_CS4,
    NOTE_CS4,
    NOTE_B3,
    NOTE_A3,
    NOTE_B3,
    NOTE_A3,
    NOTE_CS4,
    NOTE_B3,
    NOTE_B3,
    NOTE_A3,
    NOTE_GS3,
    NOTE_FS3,
    NOTE_FS3,
    NOTE_GS3,
    NOTE_FS3,
    NOTE_FS3,
    NOTE_GS3,
    NOTE_FS3,
    NOTE_FS3,
    NOTE_GS3,
    NOTE_FS3,
    NOTE_FS4,
    NOTE_E4,
    NOTE_FS4,
    NOTE_E4,
    NOTE_FS4,
    NOTE_A4,
    NOTE_FS4,
    NOTE_A4,
    NOTE_FS4,
    NOTE_FS4,
    NOTE_FS4,
    NOTE_E4,
    NOTE_FS4,
    NOTE_CS4,
    NOTE_FS4,
    NOTE_E4,
    NOTE_FS4,
    NOTE_FS4,
    NOTE_FS4,
    NOTE_E4,
    NOTE_FS4,
    NOTE_GS4,
    NOTE_FS4,
    NOTE_E4,
    NOTE_E4,
    NOTE_FS4,
    NOTE_E4,
    NOTE_FS4,
    NOTE_E4,
    NOTE_FS4,
    NOTE_FS4,
    NOTE_FS4,
    NOTE_FS4,
    NOTE_A4,
    NOTE_FS4,
    NOTE_FS4,
    NOTE_E4,
    NOTE_FS4,
    NOTE_FS4,
    NOTE_D4,
    NOTE_D4,
    NOTE_D4,
    NOTE_E4,
    NOTE_FS4,
    NOTE_FS4,
    NOTE_F4,
    NOTE_F4,
    NOTE_F4,
    NOTE_FS4,
    NOTE_GS4,
    NOTE_FS4,
    NOTE_GS4,
    NOTE_FS4,
    NOTE_FS4,
    NOTE_FS4,
    NOTE_E4,
    NOTE_CS4,
    NOTE_CS4,
    NOTE_FS4,
    NOTE_FS4,
    NOTE_E4,
    NOTE_CS4,
    NOTE_FS4,
    NOTE_FS4,
    NOTE_FS4,
    NOTE_E4,
    NOTE_CS4,
    NOTE_CS4,
    NOTE_FS4,
    NOTE_A4,
    NOTE_B4,
    NOTE_A4,
    NOTE_GS4,
    NOTE_FS4,
    NOTE_FS4,
    NOTE_FS4,
    NOTE_CS5,
    NOTE_B4,
    NOTE_B4,
    NOTE_FS4,
    NOTE_D4,
    NOTE_CS4,
    NOTE_FS4,
    NOTE_FS4,
    NOTE_E4,
    NOTE_CS4,
    NOTE_CS4,
    NOTE_FS4,
    NOTE_FS4,
    NOTE_E4,
    NOTE_CS4,
    NOTE_FS4,
    NOTE_FS4,
    NOTE_FS4,
    NOTE_E4,
    NOTE_CS4,
    NOTE_CS4,
    NOTE_FS4,
    NOTE_A4,
    NOTE_B4,
    NOTE_A4,
    NOTE_GS4,
    NOTE_FS4,
    NOTE_FS4,
    NOTE_FS4,
    NOTE_CS5,
    NOTE_B4,
    NOTE_B4,
    NOTE_FS4,
    NOTE_D4,
    NOTE_CS4,
    NOTE_FS4,
    NOTE_A4,
    NOTE_B4,
    NOTE_A4,
    NOTE_GS4,
    NOTE_FS4,
    NOTE_FS4,
    NOTE_FS4,
    NOTE_CS5,
    NOTE_B4,
    NOTE_B4,
    NOTE_FS4,
    NOTE_D4,
    NOTE_CS4,
    NOTE_FS4,
    NOTE_A4,
    NOTE_B4,
    NOTE_A4,
    NOTE_GS4,
    NOTE_FS4,
    NOTE_FS4,
    NOTE_FS4,
    NOTE_CS5,
    NOTE_B4,
    NOTE_B4,
    NOTE_FS4,
    NOTE_D4,
    NOTE_CS4,
    NOTE_FS4,
    NOTE_FS4,
    NOTE_E4,
    NOTE_CS4,
    NOTE_CS4,
    NOTE_FS4,
    NOTE_FS4,
    NOTE_E4,
    NOTE_CS4,
    NOTE_FS4,
    NOTE_FS4,
    NOTE_FS4,
    NOTE_E4,
    NOTE_CS4,
    NOTE_CS4,
    NOTE_FS4,
    NOTE_A4,
    NOTE_B4,
    NOTE_A4,
    NOTE_GS4,
    NOTE_FS4,
    NOTE_FS4,
    NOTE_FS4,
    NOTE_CS5,
    NOTE_B4,
    NOTE_B4,
    NOTE_FS4,
    NOTE_D4,
    NOTE_CS4,
    NOTE_FS4,
    NOTE_A4,
    NOTE_B4,
    NOTE_A4,
    NOTE_GS4,
    NOTE_FS4,
    NOTE_FS4,
    NOTE_FS4,
    NOTE_CS5,
    NOTE_B4,
    NOTE_B4,
    NOTE_FS4,
    NOTE_D4,
    NOTE_CS4,
    NOTE_FS4,
    NOTE_A4,
    NOTE_B4,
    NOTE_A4,
    NOTE_GS4,
    NOTE_FS4,
    NOTE_FS4,
    NOTE_A4,
    NOTE_B4,
    NOTE_A4,
    NOTE_GS4,
    NOTE_FS4,
    NOTE_FS4,
    NOTE_A4,
    NOTE_B4,
    NOTE_A4,
    NOTE_GS4,
    NOTE_FS4,
    NOTE_FS4,
    NOTE_FS4,
    NOTE_E4,
    NOTE_CS4,
    NOTE_CS4,
    NOTE_FS4,
    NOTE_FS4,
    NOTE_E4,
    NOTE_CS4,
    NOTE_FS4,
    NOTE_FS4,
    NOTE_E4,
    NOTE_CS4,
    NOTE_CS4,
    NOTE_FS4,
    NOTE_FS4,
    NOTE_E4,
    NOTE_CS4,
    NOTE_FS4,
    NOTE_FS4,
    NOTE_E4,
    NOTE_CS4,
    NOTE_CS4,
    NOTE_FS4,
    NOTE_FS4,
    NOTE_E4,
    NOTE_CS4,
    NOTE_FS4,
    NOTE_FS4,
    NOTE_E4,
    NOTE_CS4,
    NOTE_CS4,
    NOTE_FS4,
    NOTE_FS4,
    NOTE_E4,
    NOTE_CS4
};

// The duration array in milliseconds (ms)
const int durations[] PROGMEM = {
    78,
    73,
    245,
    250,
    255,
    500,
    245,
    99,
    115,
    130,
    245,
    250,
    312,
    57,
    83,
    94,
    245,
    250,
    255,
    490,
    250,
    104,
    500,
    250,
    250,
    536,
    125,
    130,
    177,
    125,
    125,
    245,
    130,
    125,
    333,
    255,
    229,
    495,
    250,
    255,
    542,
    125,
    125,
    266,
    130,
    120,
    271,
    130,
    125,
    365,
    78,
    83,
    83,
    250,
    245,
    255,
    500,
    245,
    125,
    125,
    125,
    255,
    245,
    182,
    89,
    94,
    94,
    250,
    250,
    255,
    495,
    250,
    250,
    188,
    245,
    255,
    250,
    495,
    125,
    125,
    214,
    125,
    130,
    219,
    125,
    125,
    370,
    250,
    120,
    255,
    125,
    495,
    339,
    104,
    177,
    62,
    42,
    125,
    125,
    323,
    125,
    115,
    94,
    78,
    188,
    130,
    125,
    193,
    448,
    734,
    203,
    250,
    120,
    255,
    125,
    396,
    333,
    224,
    182,
    62,
    57,
    130,
    125,
    266,
    125,
    203,
    130,
    68,
    62,
    94,
    125,
    542,
    57,
    130,
    115,
    62,
    172,
    125,
    250,
    250,
    245,
    151,
    104,
    240,
    245,
    141,
    375,
    156,
    458,
    500,
    297,
    99,
    94,
    250,
    240,
    130,
    193,
    255,
    479,
    500,
    250,
    255,
    625,
    271,
    146,
    255,
    177,
    271,
    219,
    484,
    677,
    250,
    255,
    495,
    260,
    214,
    526,
    198,
    234,
    250,
    167,
    391,
    240,
    510,
    521,
    78,
    94,
    99,
    245,
    250,
    255,
    495,
    250,
    130,
    125,
    130,
    250,
    250,
    198,
    104,
    120,
    104,
    250,
    250,
    255,
    495,
    245,
    240,
    479,
    255,
    250,
    536,
    125,
    125,
    219,
    130,
    125,
    260,
    120,
    125,
    349,
    250,
    245,
    505,
    245,
    255,
    385,
    214,
    333,
    396,
    318,
    302,
    359,
    318,
    318,
    562,
    83,
    83,
    89,
    250,
    250,
    255,
    495,
    250,
    109,
    125,
    130,
    250,
    250,
    229,
    94,
    89,
    89,
    250,
    245,
    255,
    500,
    250,
    255,
    125,
    250,
    250,
    250,
    391,
    125,
    125,
    167,
    125,
    125,
    208,
    130,
    125,
    307,
    240,
    125,
    250,
    130,
    490,
    240,
    146,
    250,
    52,
    130,
    104,
    125,
    417,
    125,
    172,
    120,
    83,
    339,
    125,
    125,
    250,
    490,
    661,
    62,
    104,
    245,
    125,
    250,
    130,
    406,
    214,
    57,
    125,
    250,
    47,
    224,
    125,
    557,
    177,
    156,
    68,
    214,
    125,
    714,
    245,
    141,
    73,
    240,
    130,
    333,
    250,
    245,
    167,
    104,
    240,
    245,
    141,
    375,
    156,
    458,
    500,
    297,
    99,
    94,
    234,
    245,
    130,
    193,
    255,
    479,
    500,
    250,
    255,
    625,
    271,
    146,
    255,
    177,
    271,
    219,
    484,
    677,
    104,
    240,
    245,
    141,
    375,
    156,
    458,
    500,
    297,
    99,
    94,
    245,
    250,
    130,
    193,
    255,
    479,
    500,
    250,
    255,
    625,
    271,
    146,
    255,
    177,
    271,
    219,
    484,
    677,
    250,
    255,
    495,
    260,
    214,
    526,
    198,
    234,
    250,
    167,
    391,
    240,
    510,
    521,
    250,
    255,
    495,
    260,
    214,
    526,
    198,
    234,
    250,
    167,
    391,
    240,
    510,
    521,
    104,
    240,
    245,
    141,
    375,
    156,
    458,
    500,
    297,
    99,
    94,
    245,
    250,
    130,
    193,
    255,
    479,
    500,
    250,
    255,
    625,
    271,
    146,
    219,
    177,
    271,
    219,
    484,
    677,
    250,
    255,
    495,
    260,
    214,
    526,
    198,
    234,
    250,
    167,
    391,
    240,
    510,
    521,
    250,
    255,
    495,
    260,
    214,
    526,
    250,
    255,
    495,
    260,
    214,
    526,
    250,
    255,
    495,
    260,
    214,
    526,
    104,
    240,
    245,
    141,
    375,
    156,
    458,
    500,
    297,
    104,
    240,
    245,
    141,
    375,
    156,
    458,
    500,
    297,
    104,
    240,
    245,
    141,
    375,
    156,
    458,
    500,
    297,
    104,
    240,
    245,
    141,
    375,
    156,
    458,
    500,
    297
};

// The total number of notes in the melody (must match the lengths of both arrays)
const int melody_length = sizeof(melody) / sizeof(melody[0]);